<?xml version="1.0" encoding="utf-8"?>
<!-- Generator: Adobe Illustrator 26.0.0, SVG Export Plug-In . SVG Version: 6.00 Build 0)  -->
<svg version="1.1" id="Layer_1" xmlns="http://www.w3.org/2000/svg" xmlns:xlink="http://www.w3.org/1999/xlink" x="0px" y="0px"
	 viewBox="0 0 117.4 28.2" style="enable-background:new 0 0 117.4 28.2;" xml:space="preserve">
<style type="text/css">
	.st0{fill:#FFFFFF;}
	.st1{fill:#F7941D;}
</style>
<g>
	<g>
		<path class="st0" d="M13.2,13.2H17v6.4c-1.8,1.3-4.2,2-6.5,2c-4.9,0-8.5-3.3-8.5-8c0-4.7,3.6-8,8.6-8c2.9,0,5.2,1,6.7,2.8
			l-2.8,2.5c-1.1-1.2-2.3-1.7-3.7-1.7c-2.6,0-4.4,1.7-4.4,4.4c0,2.6,1.8,4.4,4.4,4.4c0.8,0,1.6-0.2,2.4-0.5V13.2z"/>
		<path class="st0" d="M27.4,17.1h-2.4v4.1h-4.4V5.8h7.1c4.2,0,6.9,2.2,6.9,5.7c0,2.3-1.1,3.9-3,4.9l3.3,4.9h-4.7L27.4,17.1z
			 M27.5,9.2h-2.4v4.5h2.4c1.8,0,2.7-0.8,2.7-2.2C30.2,10,29.3,9.2,27.5,9.2z"/>
		<path class="st0" d="M48.2,18.2h-6.5l-1.2,3H36l6.8-15.4h4.3L54,21.2h-4.5L48.2,18.2z M46.9,15L45,10L43,15H46.9z"/>
		<path class="st0" d="M70.9,5.8l-6.6,15.4H60L53.4,5.8h4.7l4.2,10.1l4.3-10.1H70.9z"/>
		<path class="st0" d="M72.7,5.8H77v15.4h-4.4V5.8z"/>
		<path class="st0" d="M84.3,9.2h-4.7V5.8h13.8v3.5h-4.7v12h-4.4V9.2z"/>
		<path class="st0" d="M103.8,15.7v5.5h-4.4v-5.6l-5.9-9.8h4.6l3.7,6.1l3.7-6.1h4.2L103.8,15.7z"/>
		<path class="st1" d="M109.9,18.9c0-1.5,1.1-2.5,2.5-2.5c1.4,0,2.5,1,2.5,2.5c0,1.5-1.1,2.5-2.5,2.5
			C111,21.4,109.9,20.4,109.9,18.9z"/>
	</g>
</g>
</svg>
